<?xml version="1.0" encoding="utf-8"?>
<!-- Generator: Adobe Illustrator 27.5.0, SVG Export Plug-In . SVG Version: 6.00 Build 0)  -->
<svg version="1.1" xmlns="http://www.w3.org/2000/svg" xmlns:xlink="http://www.w3.org/1999/xlink" x="0px" y="0px"
	 viewBox="0 0 1122 1122" style="enable-background:new 0 0 1122 1122;" xml:space="preserve">
<g id="Bg">
	<g>
		<g>
			<rect style="fill:#FFFFFF;" width="1122" height="1122"/>
		</g>
	</g>
</g>
<g id="Object">
	<g>
		<path style="fill:#616E7D;" d="M432.414,667.46c113.04,138.986,254.265,212.745,321.709,170.021l0.75-0.481
			c2.003-1.313,3.952-2.717,5.84-4.273c1.368-1.093,2.675-2.284,3.933-3.495l0.128-0.206c1.622-1.044,3.177-2.167,4.69-3.38
			c1.223-1.01,2.39-2.1,3.541-3.205c38.061-60.021-83.779-163.287-110.462-142.371l-8.043,6.53l-4.69,3.834l-5.791,4.708
			c-9.393,7.629-21.352,8.434-26.733,1.819l-13.925-17.094c-10.809-23.249-34.992-59.555-66.198-97.925
			c-31.223-38.376-61.858-69.429-82.422-84.753l-13.581-16.709c-5.398-6.634-2.155-18.175,7.226-25.809l1.743-1.425l4.043-3.292
			l7.432-6.052l6.875-5.583l0.914-0.762c18.157-41.045-62.487-157.938-105.161-146.983l-6.924,5.641l-2.675,2.196l-8.485,6.891
			l-1.18,0.959l-4.623,3.765l-2.93,2.372l-6.373,5.208l0.314,0.384C275.926,375.373,319.416,528.56,432.414,667.46z"/>
		<path style="fill:#AAD4C8;" d="M487.766,422.639c24.783-20.169,23.119-63.928-2.547-101.042c-1.919-2.768-3.947-5.486-6.138-8.17
			c-31.44-38.646-78.519-52.411-105.16-30.72l-9.69,7.864c42.673-10.954,123.318,105.938,105.161,146.983L487.766,422.639z"/>
		<path style="fill:#AAD4C8;" d="M774.924,820.52l2.686-2.182l19.277-15.675c26.659-21.675,22.834-70.497-8.498-109.013
			c-2.124-2.633-4.357-5.129-6.609-7.51c-31.041-32.721-73.563-43.212-98.406-23.022l-19.276,15.675l-1.555,1.277
			c26.683-20.916,148.523,82.351,110.462,142.371L774.924,820.52z"/>
	</g>
</g>
</svg>
